<svg xmlns="http://www.w3.org/2000/svg" version="1.1" viewBox="0 0 100 100">
	<rect rx="10" ry="10" height="100" width="100" y="0" x="0" fill="#7cfdfe"/>
	<path d="m79.412 24.508c0 2.7523.04202 5.4835-.02101 8.2358-.02101.96645.27312 1.3866 1.1765 1.7858 1.9329.84039 3.8448 1.8068 5.6306 2.9203 2.164 1.3656 3.1935 3.3405 3.1304 6.0718-.14707 6.1558-.063 12.333-.084 18.489 0 .56726.18909.84039.69332 1.1135 2.3531 1.3026 4.7692 2.5212 6.7231 4.4541 4.5171 4.5171 4.454 9.9586-.21009 14.329-2.8993 2.7313-6.4289 4.433-10.106 5.8197-6.638 2.499-13.551 3.823-20.568 4.663-7.731.924-15.484 1.176-23.257.714-9.77-.567-19.434-1.912-28.679-5.336-3.8863-1.45-7.626-3.215-10.609-6.198-2.7316-2.71-4.0342-5.904-2.7106-9.728.6723-1.995 1.8908-3.634 3.6556-4.853 1.5547-1.0715 3.1094-2.164 4.6641-3.2565.04202-.04202.10505-.08404.16808-.08404 1.7018-.27313 1.7228-1.4287 1.7228-2.8363-.06303-5.7987.08404-11.597-.04202-17.396-.06303-2.6682.96644-4.6431 3.1094-6.0088 1.8278-1.1555 3.8027-2.122 5.7987-3.0044.81937-.35716 1.0295-.73534 1.0295-1.5337 0-5.3575.08404-10.736 0-16.093-.04202-2.3531.94543-3.9288 2.8363-5.1054 2.122-1.3236 4.433-2.122 6.8281-2.7523 8.4038-2.185 16.997-2.5422 25.653-2.059 4.8952.27313 9.7695.86140 14.476 2.3321 2.122.67231 4.2019 1.5757 6.1978 2.6052s3.0254 2.7103 2.8783 5.1264c-.14707 2.5212-.04202 5.0633-.04202 7.5845zm-63.512 23.215v8.0257c0 .12606.02101.25212.06303.35717.98745 3.0884 2.8153 5.4835 5.8407 6.7651 2.9834 1.2606 5.8617.10505 7.1012-2.6892.84038-1.9119 3.0044-2.269 4.37-.67231.39918.48322.67231 1.0925.90341 1.7018.86139 2.122 2.227 3.7607 4.349 4.6852 3.6137 1.5757 7.3324.02101 8.803-3.6347.31514-.79837.71433-1.5127 1.5547-1.8278 1.5127-.58827 2.9834.04202 3.6137 1.5967.52524 1.2816 1.2186 2.4161 2.3321 3.2565 2.5001 1.8909 6.0928 1.5757 8.656-.73534 1.1975-1.0925 1.9539-2.4371 2.4791-3.9498.44120-1.3026 1.4917-2.0379 2.7733-2.101 1.3026-.06303 1.9119.69332 2.3741 1.7648.46221 1.0505 1.0505 2.101 2.164 2.5212 1.4076.54625 2.8363.84039 4.391.25212 3.3405-1.3026 5.5886-3.7187 6.2609-7.1013.50423-2.5632.10505-5.3155.10505-8.0887-.4202.18909-.77736.35716-1.1345.52524-6.0928 2.8363-12.606 3.9918-19.203 4.7482-6.7441.79837-13.53.94544-20.316.56726-4.8952-.27313-9.7695-.79837-14.581-1.7438-4.391-.86140-8.698-2.0379-12.9-4.223zm73.429 20.842c-.10505.14707-.16808.21010-.18909.29414-.021.12606-.042.25212-.021.35716.56726 2.4581-.46221 4.307-2.248 5.8407-1.9539 1.7018-4.286 2.7523-6.7021 3.6347-6.9962 2.5212-14.266 3.6557-21.64 3.9918-5.4625.27313-10.967.21010-16.451.02101-5.9457-.18909-11.828-1.0715-17.606-2.6052-3.7817-.98746-7.5004-2.206-10.736-4.5381-2.08-1.4917-3.3195-3.4036-3.0884-6.0718.02101-.25212-.02101-.52524-.04202-.92443-1.7648.98746-3.1935 2.164-4.412 3.5927-1.2606 1.4917-1.3236 3.0884-.12606 4.6431.71433.94544 1.6177 1.7858 2.5632 2.4791 2.3111 1.7438 4.9583 2.8573 7.6475 3.8448 8.719 3.1304 17.795 4.349 26.997 4.7902 10.19.50423 20.337-.02101 30.359-2.0169 5.2314-1.0505 10.358-2.4791 15.127-4.9793 1.9959-1.0505 3.9078-2.248 5.2524-4.1389.84039-1.1555 1.1135-2.4581.39918-3.7397-1.1765-2.0169-3.1514-3.2145-5.0843-4.4751zm-73.261-4.181c-.06303.04202-.12606.10505-.21010.14707 0 1.6177.04202 3.2565-.02101 4.8743-.04202.86140.25212 1.4287.94543 1.9329 1.8909 1.4076 4.0549 2.227 6.2819 2.9414 6.2609 1.9959 12.732 2.8783 19.245 3.2775 9.1602.56726 18.299.25212 27.334-1.4497 4.391-.84039 8.74-1.8278 12.648-4.1389.65130-.39918 1.5757-1.0085 1.6388-1.5967.21009-1.9329.084-3.8868.084-6.0928-.79837.69332-1.3866 1.3236-2.08 1.8068-1.7648 1.1976-3.5926 2.164-5.7776 2.4371-2.4581.31514-4.6851.02101-6.7441-1.4076-1.1345-.79837-1.1345-.79837-2.0589.27313-.04202.04202-.08404.08404-.12606.14707-3.0674 3.7817-8.74 5.3155-13.026 3.4036-1.5337-.69332-2.9203-1.7438-4.391-2.6682-4.6641 4.9373-12.942 4.9373-18.32-1.8699-2.3531 1.8699-4.9583 2.6052-7.9837 2.08-2.963-.504-5.295-2.08-7.438-4.097zm9.749-43.574c0 2.5632-.02101 5.2104.02101 7.8576 0 .25212.33615.63029.58827.73534 2.3951.84039 4.5171-.08404 5.5465-2.4161.39918-.92443 1.0505-1.4917 2.0169-1.4497.98745.02101 1.6808.56726 2.122 1.5127.46221 1.0295 1.0505 1.9959 1.6808 2.9414 1.3026 1.9959 3.2985 2.4581 5.4835 2.3111 2.29-.16808 3.6557-1.6177 4.5591-3.5506.44120-.96645.96644-1.5967 2.08-1.6177 1.1765-.02101 1.7648.63029 2.185 1.6177.69332 1.6388 1.8699 2.8153 3.5926 3.3405 2.8153.88241 6.2188-.52524 7.5845-3.9078.16808-.39918.39918-.75635.54625-1.1765.42019-1.0715 1.2606-1.4707 2.3321-1.4917 1.0085 0 1.4497.71433 1.8488 1.5547 1.0085 2.206 3.1514 3.0884 5.4625 2.3741.44120-.14707.73534-.31514.73534-.88241-.02101-2.5002 0-5.0003 0-7.4795 0-.12606-.06303-.27313-.04202-.21010-16.156 4.7692-32.187 4.7482-48.343-.06303zm.10505 12.879c-.37817 1.2396-.02101 2.122 1.0505 2.6892.65130.35716 1.2816.75635 1.9539 1.0295 3.2565 1.4077 6.6811 2.122 10.169 2.5842 8.677 1.1555 17.333 1.0715 25.926-.71433 2.8363-.58827 5.6306-1.3236 8.1097-2.9624 1.0925-.73534 1.2606-1.2606.88240-2.6262-3.0254.98746-5.8197.67231-8.3408-1.5127-1.9959 2.4371-4.412 4.0549-7.5845 4.4961-3.2565.46221-5.8407-.86140-8.1727-3.0464-2.269 2.2901-4.9162 3.4666-8.1517 3.0674-3.1725-.39918-5.5045-2.185-7.5635-4.5171-2.4581 2.248-5.2524 2.5632-8.2778 1.5127z" fill="#fefefe"/>
</svg>
