<svg xmlns="http://www.w3.org/2000/svg" version="1.1" viewBox="0 0 100 100">
	<rect rx="10" ry="10" height="100" width="100" y="0" x="0" fill="#ff5252"/>
	<path stroke-width=".85331" fill="#fefefe" d="m75.098 28.247c0 2.3486.03586 4.6791-.01793 7.0277-.01793.82468.23306 1.1832 1.0039 1.5238 1.6494.71712 3.2808 1.5418 4.8047 2.4919 1.8466 1.1653 2.7251 2.8505 2.6712 5.1811-.12550 5.2528-.05376 10.524-.07168 15.777 0 .48405.16135.71712.59162.95016 2.0079 1.1115 4.0696 2.1514 5.7369 3.8007 3.8545 3.8545 3.8007 8.4978-.17927 12.227-2.474 2.3307-5.4859 3.7827-8.6236 4.966-5.6643 2.1324-11.563 3.2622-17.551 3.979-6.597.78846-13.213 1.0035-19.845.60926-8.338-.483-16.584-1.63-24.473-4.552-3.316-1.237-6.507-2.744-9.053-5.289-2.3308-2.312-3.4423-5.038-2.3129-8.301.5737-1.702 1.6134-3.101 3.1189-4.141 1.3266-.91432 2.6533-1.8466 3.9799-2.7788.03586-.03586.08964-.07171.14342-.07171 1.4522-.23307 1.4701-1.2191 1.4701-2.4203-.05378-4.9481.07171-9.8959-.03586-14.844-.05378-2.2768.82468-3.962 2.6533-5.1274 1.5597-0.986 3.2449-1.8107 4.9481-2.5637.69918-.30477.87848-.62748.87848-1.3087 0-4.5716.07171-9.1612 0-13.732-.03586-2.0079.80675-3.3525 2.4202-4.3565 1.8107-1.1294 3.7827-1.8107 5.8265-2.3486 7.1711-1.8645 14.504-2.1693 21.89-1.757 4.1771.23306 8.3364.73504 12.353 1.99 1.8107.57369 3.5855 1.3446 5.2887 2.223 1.7031.87848 2.5816 2.3127 2.4561 4.3744-.12550 2.1514-.03586 4.3206-.03586 6.4719zm-54.196 19.81v6.8484c0 .10757.01793.21514.05378.30478.84260 2.6354 2.4023 4.6791 4.9839 5.7727 2.5458 1.0757 5.0019.08964 6.0595-2.2947.71711-1.6314 2.5637-1.9362 3.729-.57369.34062.41234.57369.93224.77089 1.4522.73504 1.8107 1.9003 3.2091 3.7111 3.9979 3.0836 1.3446 6.2568.01793 7.5117-3.1015.26891-.68126.60955-1.2908 1.3266-1.5597 1.2908-.50198 2.5458.03586 3.0836 1.3625.44819 1.0936 1.0398 2.0617 1.99 2.7788 2.1334 1.6135 5.1991 1.3446 7.3863-.62748 1.0218-.93224 1.6673-2.0796 2.1154-3.3704.37648-1.1115 1.2729-1.739 2.3665-1.7928 1.1115-.05378 1.6314.59162 2.0258 1.5059.39441.89640.89640 1.7928 1.8466 2.1514 1.2011.46612 2.4202.71712 3.7469.21514 2.8505-1.1115 4.7688-3.1732 5.3425-6.0596.43026-2.1872.08964-4.5358.08964-6.9022-.35856.16135-.66333.30477-.96808.44819-5.1991 2.4202-10.757 3.4063-16.386 4.0517-5.7548.68126-11.545.80676-17.336.48405-4.1771-.23307-8.3364-.68126-12.442-1.488-3.7469-.73504-7.4221-1.739-11.008-3.6035zm62.658 17.785c-.08964.12550-.14342.17928-.16135.25099-.01792.10757-.03584.21514-.01792.30477.48405 2.0975-.39441 3.6752-1.9182 4.9839-1.6673 1.4522-3.6573 2.3486-5.719 3.1015-5.9699 2.1514-12.173 3.1195-18.466 3.4063-4.6612.23306-9.3583.17928-14.038.01793-5.0735-.16135-10.093-.91432-15.023-2.223-3.227-.84261-6.4002-1.8824-9.1612-3.8724-1.7749-1.2729-2.8326-2.9043-2.6354-5.1811.01793-.21514-.01793-.44819-.03586-.78883-1.5059.84261-2.7251 1.8466-3.7648 3.0657-1.0757 1.2729-1.1294 2.6354-.10757 3.962.60955.80676 1.3804 1.5238 2.1872 2.1154 1.9721 1.488 4.231 2.4382 6.5257 3.2808 7.44 2.6712 15.185 3.7111 23.037 4.0875 8.6953.43027 17.354-.01793 25.906-1.721 4.464-.89640 8.8386-2.1154 12.908-4.2489 1.7031-.89640 3.3346-1.9182 4.4819-3.5318.71712-0.986.95016-2.0975.34062-3.1911-1.004-1.722-2.689-2.744-4.339-3.819zm-62.515-3.568c-.05378.03586-.10757.08964-.17928.12550 0 1.3804.03586 2.7788-.01793 4.1593-.03586.73504.21514 1.2191.80675 1.6494 1.6135 1.2011 3.4601 1.9003 5.3604 2.5099 5.3425 1.7031 10.864 2.4561 16.422 2.7967 7.8165.48405 15.615.21514 23.324-1.237 3.7469-.71712 7.458-1.5597 10.793-3.5318.55576-.34062 1.3446-.86056 1.3984-1.3625.17927-1.6494.07168-3.3167.07168-5.1991-.68126.59162-1.1832 1.1294-1.7749 1.5418-1.5059 1.0219-3.0656 1.8466-4.9301 2.0796-2.0975.26891-3.9979.01793-5.7548-1.2011-.96808-.68126-.96808-.68126-1.7569.23306-.03586.03586-.07171.07171-.10757.12550-2.6175 3.227-7.458 4.5358-11.115 2.9043-1.3087-.59162-2.4919-1.488-3.7469-2.2768-3.9799 4.2131-11.044 4.2131-15.633-1.5956-2.0079 1.5956-4.231 2.223-6.8126 1.7749-2.5284-.43007-4.5183-1.7749-6.3469-3.496zm8.3189-37.182c0 2.1872-.01793 4.4461.01793 6.705 0 .21514.28684.53783.50198.62748 2.0438.71712 3.8545-.07171 4.7329-2.0617.34063-.78883.89640-1.2729 1.721-1.237.84260.01793 1.4342.48405 1.8107 1.2908.39441.87848.89640 1.7031 1.4342 2.5099 1.1115 1.7031 2.8147 2.0975 4.6791 1.9721 1.9541-.14342 3.1195-1.3804 3.8903-3.0298.37648-.82468.82468-1.3625 1.7749-1.3804 1.0039-.01793 1.5059.53783 1.8645 1.3804.59162 1.3984 1.5956 2.4023 3.0656 2.8505 2.4023.75297 5.3066-.44819 6.4719-3.3346.14342-.34062.34062-.64540.46612-1.0039.35855-.91432 1.0757-1.255 1.99-1.2729.86057 0 1.237.60955 1.5776 1.3266.86057 1.8824 2.6891 2.6354 4.6612 2.0258.37648-.12550.62748-.26891.62748-.75297-.01793-2.1335 0-4.2668 0-6.3824 0-.10757-.05378-.23306-.03586-.17928-13.786 4.069-27.465 4.051-41.252-.054zm.08964 10.99c-.32270 1.0578-.01793 1.8107.89640 2.2947.55576.30477 1.0936.64540 1.6673.87848 2.7788 1.2012 5.7011 1.8107 8.6773 2.2051 7.4042 0.986 14.79.91432 22.123-.60955 2.4202-.50198 4.8047-1.1294 6.9201-2.5279.93224-.62748 1.0757-1.0757.75296-2.241-2.5816.84261-4.966.57369-7.1173-1.2908-1.7031 2.0796-3.7648 3.4601-6.4719 3.8366-2.7788.39441-4.9839-.73504-6.9739-2.5995-1.9362 1.9542-4.1951 2.9581-6.9559 2.6175-2.7071-.34063-4.6971-1.8645-6.454-3.8545-2.0975 1.9182-4.4819 2.1872-7.0636 1.2908z"/>
</svg>
