<?xml version="1.0" standalone="no"?>
<!DOCTYPE svg PUBLIC "-//W3C//DTD SVG 20010904//EN"
 "http://www.w3.org/TR/2001/REC-SVG-20010904/DTD/svg10.dtd">
<svg version="1.0" xmlns="http://www.w3.org/2000/svg"
 width="700.000000pt" height="700.000000pt" viewBox="0 0 700.000000 700.000000"
 preserveAspectRatio="xMidYMid meet">
<metadata>
Created by potrace 1.11, written by Peter Selinger 2001-2013
</metadata>
<g transform="translate(0.000000,700.000000) scale(0.100000,-0.100000)"
fill="#000000" stroke="none">
<path d="M3457 6534 c-1 -1 -99 -4 -217 -8 -118 -3 -242 -9 -275 -11 -506 -45
-957 -146 -1210 -272 -135 -67 -190 -108 -246 -186 -62 -86 -63 -89 -63 -772
-1 -573 -2 -623 -18 -648 -12 -18 -66 -49 -173 -101 -345 -166 -455 -263 -494
-437 -6 -27 -10 -314 -11 -736 0 -380 -3 -705 -6 -721 -8 -40 -45 -78 -91 -93
-21 -6 -99 -55 -173 -107 -74 -52 -154 -108 -178 -124 -189 -130 -307 -357
-297 -572 8 -177 68 -299 225 -456 201 -202 480 -352 915 -493 128 -41 331
-101 380 -112 11 -2 61 -13 110 -25 140 -32 328 -67 450 -85 23 -3 52 -7 65
-10 31 -6 81 -13 150 -20 30 -3 66 -8 80 -10 35 -6 102 -13 300 -30 41 -4 91
-8 110 -10 279 -27 1274 -27 1430 0 14 2 57 7 95 10 39 3 86 8 105 10 19 2 62
7 95 10 70 6 149 15 178 21 11 2 43 6 71 9 74 8 243 34 301 45 28 5 66 12 85
15 19 3 42 8 50 10 8 2 31 7 50 10 45 8 182 39 284 66 43 11 86 22 95 24 47
10 268 81 388 126 248 91 473 207 617 317 79 60 204 185 243 242 118 175 151
363 92 540 -73 224 -234 386 -571 575 -127 71 -138 79 -144 111 -6 32 -8 402
-5 1084 1 179 0 334 -3 345 -13 60 -21 85 -47 135 -57 116 -169 197 -449 330
-135 64 -151 74 -173 103 -20 25 -21 90 -15 982 1 149 -2 290 -6 315 -11 64
-53 135 -106 182 -44 40 -248 144 -380 195 -124 47 -343 110 -445 127 -16 3
-57 10 -90 16 -68 12 -153 25 -235 35 -30 4 -66 9 -80 10 -14 2 -63 6 -110 10
-47 3 -105 8 -130 10 -25 2 -130 7 -235 10 -272 10 -287 10 -288 9z m-1428
-1050 c96 -25 181 -47 190 -49 9 -2 52 -11 96 -20 86 -18 89 -18 180 -34 94
-16 117 -20 160 -26 61 -8 118 -17 135 -20 8 -2 49 -6 90 -10 41 -3 87 -8 101
-11 156 -25 911 -25 1045 0 11 2 54 7 97 11 43 3 88 8 100 10 12 2 45 6 72 10
43 5 83 11 250 40 17 3 53 10 81 16 28 5 63 12 79 15 33 6 355 86 432 107 47
13 52 13 55 -2 2 -9 3 -134 2 -278 -1 -298 0 -294 -80 -311 -115 -25 -233 11
-295 89 -20 24 -51 70 -70 102 -19 33 -46 65 -61 73 -40 21 -104 17 -150 -8
-35 -20 -48 -39 -98 -139 -96 -190 -196 -277 -353 -303 -184 -31 -332 45 -427
218 -22 39 -48 81 -59 93 -44 47 -135 53 -193 12 -15 -11 -46 -55 -69 -99 -87
-163 -191 -231 -356 -231 -184 -1 -283 62 -391 248 -23 39 -42 74 -42 78 0 3
-15 30 -34 59 -38 59 -82 86 -143 86 -57 0 -95 -29 -137 -104 -72 -128 -148
-179 -271 -180 -75 -1 -130 16 -145 44 -5 9 -9 129 -10 266 -2 341 -4 307 23
300 12 -4 100 -27 196 -52z m541 -904 c5 0 16 -7 24 -16 36 -36 195 -108 263
-120 15 -2 34 -7 42 -10 19 -6 178 -6 216 1 58 11 131 37 192 70 64 35 80 47
147 106 41 36 41 36 61 16 35 -34 121 -95 179 -127 82 -44 187 -70 281 -70 92
-1 114 3 210 31 132 39 221 94 337 209 l77 75 38 -28 c125 -94 281 -130 436
-100 120 23 112 26 115 -38 3 -56 2 -57 -41 -95 -110 -96 -314 -175 -611 -234
-192 -38 -182 -37 -241 -44 -27 -4 -61 -9 -75 -11 -84 -12 -147 -19 -280 -32
-110 -10 -728 -10 -845 0 -49 4 -115 10 -145 13 -30 3 -66 7 -80 9 -14 2 -54
7 -90 11 -36 3 -67 7 -70 9 -3 2 -30 6 -60 10 -30 4 -77 11 -105 17 -27 5 -61
11 -75 14 -124 23 -335 88 -451 140 -159 70 -224 133 -212 207 7 46 13 48 68
31 62 -18 200 -25 263 -11 64 13 158 57 212 99 l45 35 83 -83 c47 -46 88 -84
92 -84z m-1355 -970 c245 -113 573 -208 915 -266 25 -4 47 -8 50 -9 30 -7 128
-22 200 -30 30 -3 62 -8 70 -10 8 -2 44 -7 80 -10 36 -4 76 -8 90 -10 14 -2
66 -7 115 -11 50 -3 101 -8 115 -9 225 -27 1117 -27 1335 0 17 2 59 6 95 10
121 11 175 16 215 22 22 3 51 7 65 8 451 50 871 156 1207 303 95 42 112 47
116 33 2 -9 3 -129 3 -266 -1 -279 -8 -319 -72 -450 -65 -133 -197 -250 -356
-317 -89 -38 -179 -40 -283 -8 -86 27 -145 83 -193 181 -50 106 -94 135 -190
130 -72 -4 -162 -80 -179 -150 -8 -37 -61 -139 -92 -181 -196 -263 -548 -300
-744 -79 -25 28 -64 88 -87 134 -43 88 -92 141 -138 151 -15 3 -32 7 -38 9
-23 7 -99 -17 -130 -40 -17 -13 -44 -50 -60 -82 -86 -175 -174 -261 -312 -301
-42 -13 -152 -17 -202 -9 -75 13 -190 69 -255 125 -47 40 -113 133 -149 212
-73 158 -127 211 -217 212 -79 1 -116 -30 -194 -160 -191 -321 -664 -180 -849
253 l-30 70 -1 297 c-1 266 0 296 14 288 9 -4 48 -22 86 -40z m10 -1200 c303
-244 659 -282 921 -99 l56 40 77 -79 c150 -157 311 -248 501 -282 67 -12 192
-15 245 -6 17 3 45 8 64 11 102 18 266 103 355 186 l45 41 48 -34 c230 -159
358 -209 536 -209 222 0 440 92 592 251 92 97 107 110 120 110 6 0 48 -22 92
-48 77 -46 147 -74 223 -88 53 -10 212 -6 267 7 26 6 57 12 68 15 87 17 282
127 374 210 34 31 65 54 68 50 8 -8 6 -350 -2 -395 -8 -46 -25 -67 -84 -107
-121 -82 -348 -177 -533 -225 -46 -11 -90 -23 -98 -25 -77 -20 -424 -88 -501
-98 -19 -3 -56 -7 -84 -11 -27 -3 -57 -8 -65 -10 -8 -2 -46 -7 -85 -10 -38 -4
-77 -8 -85 -10 -8 -2 -53 -7 -100 -10 -47 -4 -101 -8 -120 -10 -260 -24 -995
-24 -1210 0 -32 4 -135 12 -235 20 -38 2 -120 12 -175 20 -14 2 -65 9 -115 15
-353 43 -793 160 -1040 276 -100 47 -200 119 -219 157 -13 29 -16 70 -16 231
0 108 3 196 8 196 4 0 52 -36 107 -80z m-479 -312 c4 -139 48 -237 148 -332
91 -86 318 -211 501 -275 170 -60 561 -164 670 -177 16 -2 37 -6 45 -9 8 -2
38 -7 65 -11 28 -3 53 -8 56 -10 11 -6 92 -18 199 -29 30 -4 66 -8 79 -10 14
-2 54 -7 90 -10 36 -4 84 -8 106 -10 286 -26 1382 -27 1590 -1 17 2 70 7 118
11 48 3 96 8 105 10 9 1 42 6 72 9 30 4 66 8 80 11 14 2 61 9 105 15 282 40
766 172 970 264 98 45 131 60 135 65 3 3 25 17 50 30 90 49 213 158 260 231
43 67 64 158 55 246 -3 39 -3 74 2 77 14 9 189 -114 261 -184 197 -190 163
-357 -113 -561 -98 -73 -375 -210 -548 -272 -106 -38 -357 -114 -437 -132 -11
-2 -28 -6 -37 -8 -10 -3 -52 -12 -93 -21 -41 -9 -84 -18 -95 -21 -52 -12 -291
-55 -328 -59 -23 -3 -53 -7 -67 -10 -14 -2 -45 -7 -70 -10 -25 -3 -56 -8 -70
-10 -14 -2 -50 -7 -80 -10 -30 -4 -66 -8 -80 -10 -14 -2 -59 -6 -100 -10 -41
-3 -95 -8 -120 -10 -362 -34 -906 -38 -1390 -10 -153 9 -360 27 -465 41 -16 2
-48 6 -70 9 -474 53 -1046 198 -1405 357 -146 64 -309 162 -389 232 -228 201
-241 335 -53 521 71 69 231 189 241 180 2 -3 5 -46 7 -97z"/>
</g>
</svg>
